<svg xmlns="http://www.w3.org/2000/svg" xmlns:xlink="http://www.w3.org/1999/xlink" version="1.1" width="256" height="256" viewBox="0 0 256 256" xml:space="preserve">

<defs>
</defs>
<g style="stroke: none; stroke-width: 0; stroke-dasharray: none; stroke-linecap: butt; stroke-linejoin: miter; stroke-miterlimit: 10; fill: none; fill-rule: nonzero; opacity: 1;" transform="translate(1.4065934065934016 1.4065934065934016) scale(2.81 2.81)" >
	<path d="M 46.535 80.629 l 8.661 8.661 c 0.947 0.947 2.482 0.947 3.429 0 l 4.478 -4.478 l 4.627 -4.627 c 0.859 -0.859 2.257 -0.846 3.1 0.03 l 8.864 9.216 c 0.549 0.57 1.513 0.182 1.513 -0.609 V 36.198 C 81.206 16.206 64.999 0 45.008 0 h 0 h -0.015 h 0 C 25.001 0 8.794 16.206 8.794 36.198 v 52.624 c 0 0.791 0.964 1.18 1.513 0.609 l 8.864 -9.216 c 0.843 -0.876 2.24 -0.89 3.1 -0.03 l 9.105 9.105 c 0.947 0.947 2.482 0.947 3.429 0 l 8.661 -8.661 C 44.313 79.781 45.687 79.781 46.535 80.629 z" style="stroke: none; stroke-width: 1; stroke-dasharray: none; stroke-linecap: butt; stroke-linejoin: miter; stroke-miterlimit: 10; fill: rgb(58,214,73); fill-rule: nonzero; opacity: 1;" transform=" matrix(1 0 0 1 0 0) " stroke-linecap="round" />
	<path d="M 26.588 49.079 L 26.588 49.079 c -2.856 0 -5.171 -2.315 -5.171 -5.171 V 33.301 c 0 -2.856 2.315 -5.171 5.171 -5.171 h 0 c 2.856 0 5.171 2.315 5.171 5.171 v 10.607 C 31.759 46.764 29.444 49.079 26.588 49.079 z" style="stroke: none; stroke-width: 1; stroke-dasharray: none; stroke-linecap: butt; stroke-linejoin: miter; stroke-miterlimit: 10; fill: rgb(255,255,255); fill-rule: nonzero; opacity: 1;" transform=" matrix(1 0 0 1 0 0) " stroke-linecap="round" />
	<path d="M 49.451 49.079 L 49.451 49.079 c -2.856 0 -5.171 -2.315 -5.171 -5.171 V 33.301 c 0 -2.856 2.315 -5.171 5.171 -5.171 h 0 c 2.856 0 5.171 2.315 5.171 5.171 v 10.607 C 54.622 46.764 52.307 49.079 49.451 49.079 z" style="stroke: none; stroke-width: 1; stroke-dasharray: none; stroke-linecap: butt; stroke-linejoin: miter; stroke-miterlimit: 10; fill: rgb(255,255,255); fill-rule: nonzero; opacity: 1;" transform=" matrix(1 0 0 1 0 0) " stroke-linecap="round" />
</g>
</svg>